<?xml version="1.0" encoding="UTF-8" standalone="no"?>
<!DOCTYPE svg PUBLIC "-//W3C//DTD SVG 1.1//EN" "http://www.w3.org/Graphics/SVG/1.1/DTD/svg11.dtd">
<svg width="100%" height="100%" viewBox="0 0 600 600" version="1.1" xmlns="http://www.w3.org/2000/svg" xmlns:xlink="http://www.w3.org/1999/xlink" xml:space="preserve" xmlns:serif="http://www.serif.com/" style="fill-rule:evenodd;clip-rule:evenodd;stroke-linecap:round;stroke-linejoin:round;stroke-miterlimit:1.5;">
    <path d="M274.09,345.421C315.567,341.559 345.103,372.591 349.842,476.089" style="fill:none;stroke:white;stroke-width:11px;"/>
    <path d="M274.09,320.082C272.5,355.399 271.958,391.179 264.774,424.032C249.999,463.272 222.178,498.535 198.406,535.032" style="fill:none;stroke:white;stroke-width:11px;"/>
    <path d="M193.237,320.082C228.578,399.485 226.027,420.169 168.485,527.892" style="fill:none;stroke:white;stroke-width:11px;"/>
    <g transform="matrix(1,0,0,1,-552.145,-600.314)">
        <path d="M812.544,702.073L801.309,710.406L809.691,735.543C914.444,857.637 921.857,785.134 967.601,789.262" style="fill:none;stroke:white;stroke-width:10.42px;"/>
    </g>
    <g transform="matrix(1,0,0,1,-552.145,-600.314)">
        <path d="M967.601,789.262C981.885,796.739 983.981,805.216 967.601,815.206C936.903,830.475 905.756,838.784 874.016,837.859C840.678,828.726 814.114,807.438 794.776,773.187" style="fill:none;stroke:white;stroke-width:10.42px;"/>
    </g>
    <g transform="matrix(1,0,0,1,-552.145,-600.314)">
        <path d="M822.488,809.129C799.568,849.101 769.057,863.449 734.86,865.353" style="fill:none;stroke:white;stroke-width:10.42px;"/>
    </g>
    <g transform="matrix(1,0,0,1,-552.145,-600.314)">
        <path d="M705.635,767.129C714.772,767.784 655.029,841.551 660.348,865.353C669.359,905.683 752.464,932.21 745.382,920.396" style="fill:none;stroke:white;stroke-width:10.42px;"/>
    </g>
    <g transform="matrix(1,0,0,1,-552.145,-600.314)">
        <path d="M790.398,735.543C768.775,768.523 767.869,799.785 764.892,865.353C764.076,883.332 746.988,901.657 745.382,920.396" style="fill:none;stroke:white;stroke-width:10.42px;"/>
    </g>
    <g transform="matrix(1,0,0,1,-552.145,-600.314)">
        <path d="M745.382,657.462C748.108,679.552 775.44,664.855 775.44,664.855C775.44,664.855 807.666,625.321 822.488,643.987" style="fill:none;stroke:white;stroke-width:10.42px;"/>
    </g>
    <g transform="matrix(1,0,0,1,-552.145,-600.314)">
        <path d="M822.488,745.316C839.042,745.425 830.621,723.192 840.655,727.257C885.524,745.435 889.084,707.971 889.061,677.561" style="fill:none;stroke:white;stroke-width:10.42px;"/>
    </g>
    <g transform="matrix(1,0,0,1,-552.145,-600.314)">
        <path d="M826.519,714.905C790.303,677.722 810.333,638.213 848.432,634.283C865.82,636.405 881.343,644.702 895.085,658.892L889.061,677.561" style="fill:none;stroke:white;stroke-width:10.42px;"/>
    </g>
    <g transform="matrix(1.02776,0,0,0.987239,-579.608,-587.089)">
        <path d="M961.903,816.022L989.314,1036.28M951.91,735.724L958.204,786.304" style="fill:none;stroke:white;stroke-width:10.34px;"/>
    </g>
    <g transform="matrix(1.02776,0,0,0.987239,-579.608,-587.089)">
        <path d="M946.883,823.041L975.467,1046.95M936.515,735.724L944.144,790.128" style="fill:none;stroke:white;stroke-width:10.34px;"/>
    </g>
    <g transform="matrix(1,0,0,1,-552.145,-600.314)">
        <path d="M935.05,739.559C934.74,729.66 943.888,717.708 950.871,739.559" style="fill:none;stroke:white;stroke-width:10.42px;"/>
    </g>
    <g transform="matrix(1,0,0,1,-552.145,-600.314)">
        <path d="M683.407,733.408C690.616,710.952 801.85,693.004 801.309,710.451L809.597,735.647C774.423,730.524 794.859,744.519 698.516,767.129C698.516,767.129 677.086,753.098 683.407,733.408Z" style="fill:none;stroke:white;stroke-width:10.42px;"/>
    </g>
    <g transform="matrix(1,0,0,1,-552.145,-600.314)">
        <path d="M921.433,806.905L927.51,825.762" style="fill:none;stroke:white;stroke-width:10.42px;"/>
    </g>
    <g transform="matrix(1,0,0,1,-552.145,-600.314)">
        <path d="M845.815,828.854C799.636,924.098 877.887,868.754 915.374,929.744C935.06,961.772 914.908,1037.02 933.635,1062.01" style="fill:none;stroke:white;stroke-width:10.42px;"/>
    </g>
    <g transform="matrix(1,0,0,1,-552.145,-600.314)">
        <path d="M745.382,1088.9L767.89,1096.84" style="fill:none;stroke:white;stroke-width:10.42px;"/>
    </g>
    <path d="M371.941,425.386L346.238,431.683" style="fill:none;stroke:white;stroke-width:11px;"/>
    <g transform="matrix(1,0,0,1,-3,3)">
        <path d="M89.686,556.902L138.747,522.793L227.797,535.032L279.497,505.037L319.066,506.653L354.199,471.846L405.556,461.696L450.636,424.032L485.838,424.032L539.199,400.032" style="fill:none;stroke:white;stroke-width:11px;"/>
    </g>
</svg>
